<svg width="44" height="44" viewBox="0 0 44 44" fill="none" xmlns="http://www.w3.org/2000/svg">
<g clip-path="url(#clip0_16_225)">
<path d="M34.8333 12.8333H9.16667C7.14162 12.8333 5.5 14.475 5.5 16.5V33C5.5 35.0251 7.14162 36.6667 9.16667 36.6667H34.8333C36.8584 36.6667 38.5 35.0251 38.5 33V16.5C38.5 14.475 36.8584 12.8333 34.8333 12.8333Z" stroke="#2C3E50" stroke-width="2.75" stroke-linecap="round" stroke-linejoin="round"/>
<path d="M14.6667 12.8333V9.16667C14.6667 8.19421 15.0531 7.26158 15.7407 6.57394C16.4283 5.88631 17.361 5.5 18.3334 5.5H25.6667C26.6392 5.5 27.5718 5.88631 28.2595 6.57394C28.9471 7.26158 29.3334 8.19421 29.3334 9.16667V12.8333" stroke="#2C3E50" stroke-width="2.75" stroke-linecap="round" stroke-linejoin="round"/>
<path d="M22 22V22.0183" stroke="#2C3E50" stroke-width="2.75" stroke-linecap="round" stroke-linejoin="round"/>
<path d="M5.5 23.8333C10.6179 26.4123 16.2691 27.7556 22 27.7556C27.7309 27.7556 33.3821 26.4123 38.5 23.8333" stroke="#2C3E50" stroke-width="2.75" stroke-linecap="round" stroke-linejoin="round"/>
</g>
<defs>
<clipPath id="clip0_16_225">
<rect width="44" height="44" fill="white"/>
</clipPath>
</defs>
</svg>
