<svg width="164" height="49" viewBox="0 0 164 49" fill="none" xmlns="http://www.w3.org/2000/svg">
<g clip-path="url(#clip0_27_466)">
<path fill-rule="evenodd" clip-rule="evenodd" d="M156.989 48.9998H6.04034C2.71126 48.9998 0 46.2748 0 42.9559V6.69279C0 3.36188 2.71126 0.648926 6.04034 0.648926H156.989C160.315 0.648926 163.029 3.36188 163.029 6.69279V42.9559C163.029 46.2748 160.315 48.9998 156.989 48.9998Z" fill="black"/>
<path fill-rule="evenodd" clip-rule="evenodd" d="M156.989 1.61655C159.781 1.61655 162.067 3.89844 162.067 6.69279V42.9559C162.067 45.7503 159.796 48.0322 156.989 48.0322H6.04034C3.24811 48.0322 0.962736 45.7503 0.962736 42.9559V6.69279C0.962736 3.89844 3.23311 1.61655 6.04034 1.61655C6.04034 1.61655 156.989 1.61655 156.989 1.61655ZM156.989 0.648926H6.04034C2.71126 0.648926 0 3.37394 0 6.69279V42.9559C0 46.2869 2.71126 48.9998 6.04034 48.9998H156.989C160.315 48.9998 163.029 46.2869 163.029 42.9559V6.69279C163.029 3.37394 160.315 0.648926 156.989 0.648926Z" fill="#A6A6A6"/>
<path d="M85.8842 16.6432C84.7955 16.6432 83.8777 16.2604 83.1519 15.5068C82.4321 14.7743 82.0303 13.7645 82.0483 12.7336C82.0483 11.6333 82.4202 10.7019 83.1519 9.96333C83.8747 9.20973 84.7925 8.8269 85.8812 8.8269C86.9579 8.8269 87.8756 9.20973 88.6134 9.96333C89.3452 10.726 89.7171 11.6574 89.7171 12.7336C89.7051 13.8368 89.3332 14.7683 88.6134 15.5038C87.8906 16.2634 86.9729 16.6432 85.8842 16.6432ZM53.4903 16.6432C52.4256 16.6432 51.5018 16.2664 50.746 15.5219C49.9962 14.7803 49.6154 13.8429 49.6154 12.7366C49.6154 11.6303 49.9962 10.6928 50.746 9.95127C51.4868 9.20672 52.4106 8.82992 53.4903 8.82992C54.0181 8.82992 54.531 8.93542 55.0228 9.14944C55.5057 9.35744 55.8986 9.64079 56.1895 9.98745L56.2615 10.0749L55.4487 10.8767L55.3647 10.7772C54.9059 10.2286 54.291 9.96032 53.4783 9.96032C52.7525 9.96032 52.1197 10.2196 51.5978 10.732C51.0729 11.2475 50.806 11.9227 50.806 12.7396C50.806 13.5565 51.0729 14.2317 51.5978 14.7472C52.1197 15.2596 52.7525 15.5189 53.4783 15.5189C54.2521 15.5189 54.9029 15.2596 55.4097 14.7472C55.7096 14.4457 55.8956 14.0237 55.9616 13.4902H53.3553V12.3628H57.0803L57.0953 12.4653C57.1222 12.6552 57.1492 12.8511 57.1492 13.032C57.1492 14.0719 56.8373 14.913 56.2195 15.5339C55.5177 16.2694 54.6 16.6432 53.4903 16.6432ZM96.5612 16.4835H95.4125L91.8945 10.8254L91.9245 11.8443V16.4805H90.7758V8.98968H92.0864L92.1224 9.04696L95.4305 14.3764L95.4005 13.3606V8.98968H96.5612V16.4835V16.4835ZM77.2526 16.4835H76.0889V10.1171H74.0705V8.98968H79.268V10.1171H77.2496V16.4835H77.2526ZM73.1228 16.4835H71.9621V8.98968H73.1228V16.4835ZM66.5996 16.4835H65.4389V10.1171H63.4205V8.98968H68.618V10.1171H66.5996V16.4835ZM62.6857 16.4714H58.2349V8.98968H62.6857V10.1171H59.3986V12.1729H62.3648V13.2882H59.3986V15.344H62.6857V16.4714ZM84.0037 14.7321C84.5226 15.2536 85.1524 15.5158 85.8842 15.5158C86.637 15.5158 87.2518 15.2596 87.7647 14.7321C88.2745 14.2197 88.5324 13.5474 88.5324 12.7366C88.5324 11.9257 88.2745 11.2505 87.7676 10.741C87.2488 10.2196 86.616 9.9573 85.8872 9.9573C85.1344 9.9573 84.5196 10.2135 84.0097 10.741C83.4999 11.2535 83.2419 11.9257 83.2419 12.7366C83.2419 13.5474 83.4968 14.2227 84.0037 14.7321Z" fill="white"/>
<path fill-rule="evenodd" clip-rule="evenodd" d="M81.9404 26.9466C79.1062 26.9466 76.8088 29.1079 76.8088 32.0891C76.8088 35.0432 79.1212 37.2317 81.9404 37.2317C84.7747 37.2317 87.072 35.0553 87.072 32.0891C87.072 29.1079 84.7747 26.9466 81.9404 26.9466ZM81.9404 35.1939C80.3899 35.1939 79.0552 33.9038 79.0552 32.0771C79.0552 30.2232 80.3929 28.9602 81.9404 28.9602C83.491 28.9602 84.8257 30.2232 84.8257 32.0771C84.8287 33.9158 83.491 35.1939 81.9404 35.1939ZM70.7445 26.9466C67.9103 26.9466 65.6129 29.1079 65.6129 32.0891C65.6129 35.0432 67.9253 37.2317 70.7445 37.2317C73.5787 37.2317 75.8761 35.0553 75.8761 32.0891C75.8761 29.1079 73.5757 26.9466 70.7445 26.9466ZM70.7445 35.1939C69.1939 35.1939 67.8593 33.9038 67.8593 32.0771C67.8593 30.2232 69.1969 28.9602 70.7445 28.9602C72.2951 28.9602 73.6297 30.2232 73.6297 32.0771C73.6297 33.9158 72.2951 35.1939 70.7445 35.1939ZM57.4221 28.5171V30.6935H62.6197C62.4608 31.9143 62.0589 32.8156 61.444 33.4335C60.6822 34.1992 59.5066 35.0312 57.4341 35.0312C54.24 35.0312 51.7417 32.4388 51.7417 29.2285C51.7417 26.0181 54.24 23.4258 57.4341 23.4258C59.1587 23.4258 60.4153 24.11 61.3481 24.9842L62.8836 23.4408C61.588 22.1929 59.8635 21.2373 57.4461 21.2373C53.0643 21.2373 49.3873 24.8244 49.3873 29.2164C49.3873 33.6204 53.0613 37.1955 57.4461 37.1955C59.8125 37.1955 61.588 36.4178 62.9916 34.9528C64.4222 33.5149 64.8751 31.4862 64.8751 29.8494C64.8751 29.34 64.8361 28.8818 64.7551 28.493H57.4191C57.4221 28.4899 57.4221 28.5171 57.4221 28.5171ZM111.914 30.2112C111.485 29.0566 110.19 26.9345 107.532 26.9345C104.899 26.9345 102.71 29.0175 102.71 32.0771C102.71 34.9649 104.875 37.2196 107.787 37.2196C110.127 37.2196 111.488 35.7818 112.049 34.9377L110.313 33.7681C109.737 34.6272 108.936 35.1909 107.799 35.1909C106.651 35.1909 105.847 34.6664 105.313 33.6325L112.154 30.7839C112.154 30.7869 111.914 30.2112 111.914 30.2112ZM104.938 31.9294C104.884 29.9429 106.474 28.9331 107.61 28.9331C108.507 28.9331 109.254 29.3762 109.509 30.0212L104.938 31.9294ZM99.3807 36.9122H101.627V21.804H99.3807V36.9122ZM95.6917 28.089H95.6107C95.1038 27.4831 94.1411 26.9345 92.9114 26.9345C90.3591 26.9345 88.0078 29.1923 88.0078 32.0921C88.0078 34.9799 90.3471 37.2106 92.9114 37.2106C94.1261 37.2106 95.1038 36.6589 95.6107 36.041H95.6917V36.7795C95.6917 38.7419 94.648 39.7999 92.9654 39.7999C91.5888 39.7999 90.734 38.8052 90.3861 37.9732L88.4337 38.7931C88.9945 40.1496 90.4911 41.8286 92.9624 41.8286C95.5957 41.8286 97.8271 40.2702 97.8271 36.469V27.242H95.7037V28.089C95.7067 28.089 95.6917 28.089 95.6917 28.089ZM93.1124 35.1939C91.5618 35.1939 90.2662 33.8917 90.2662 32.0921C90.2662 30.2775 91.5618 28.9632 93.1124 28.9632C94.648 28.9632 95.8386 30.2925 95.8386 32.0921C95.8536 33.8917 94.651 35.1939 93.1124 35.1939ZM122.432 21.804H117.061V36.9122H119.307V31.1908H122.435C124.922 31.1908 127.366 29.3792 127.366 26.5035C127.366 23.6277 124.931 21.804 122.432 21.804ZM122.498 29.0808H119.304V23.896H122.498C124.181 23.896 125.132 25.2917 125.132 26.4884C125.132 27.673 124.169 29.0808 122.498 29.0808ZM136.37 26.9194C134.738 26.9194 133.055 27.6459 132.36 29.2285L134.351 30.0604C134.78 29.2285 135.566 28.9451 136.397 28.9451C137.56 28.9451 138.736 29.6444 138.763 30.8924V31.0522C138.361 30.8231 137.479 30.4734 136.424 30.4734C134.273 30.4734 132.093 31.655 132.093 33.8706C132.093 35.8993 133.856 37.2015 135.821 37.2015C137.329 37.2015 138.16 36.5173 138.679 35.7245H138.76V36.8941H140.925V31.1064C140.925 28.4116 138.934 26.9194 136.37 26.9194ZM136.088 35.1939C135.353 35.1939 134.324 34.8322 134.324 33.9038C134.324 32.7342 135.608 32.2911 136.702 32.2911C137.692 32.2911 138.16 32.5051 138.748 32.8005C138.586 34.157 137.446 35.1819 136.088 35.1939ZM148.825 27.242L146.246 33.7953H146.165L143.493 27.242H141.075L145.085 36.4027L142.8 41.494H145.139L151.308 27.242H148.825ZM128.605 36.9122H130.851V21.804H128.605V36.9122Z" fill="white"/>
<path fill-rule="evenodd" clip-rule="evenodd" d="M12.5486 9.75546C12.2007 10.1323 11.9998 10.708 11.9998 11.4616V38.1902C11.9998 38.9438 12.2007 39.5196 12.5606 39.8813L12.6536 39.9627L27.5535 24.9872V24.6526L12.6416 9.67407L12.5486 9.75546Z" fill="url(#paint0_linear_27_466)"/>
<path fill-rule="evenodd" clip-rule="evenodd" d="M32.5109 29.9942L27.5413 24.9993V24.6496L32.5109 19.6548L32.6189 19.7211L38.4973 23.0791C40.1799 24.0317 40.1799 25.6052 38.4973 26.5698L32.6189 29.9278L32.5109 29.9942Z" fill="url(#paint1_linear_27_466)"/>
<path fill-rule="evenodd" clip-rule="evenodd" d="M32.619 29.9278L27.5413 24.8245L12.5485 39.8934C13.0973 40.4842 14.0181 40.5506 15.0468 39.9748L32.619 29.9278Z" fill="url(#paint2_linear_27_466)"/>
<path fill-rule="evenodd" clip-rule="evenodd" d="M32.619 19.7211L15.0468 9.68919C14.0181 9.09836 13.0943 9.17975 12.5485 9.77057L27.5413 24.8245L32.619 19.7211Z" fill="url(#paint3_linear_27_466)"/>
<path opacity="0.2" fill-rule="evenodd" clip-rule="evenodd" d="M32.5111 29.8193L15.0588 39.7849C14.084 40.3486 13.2142 40.3094 12.6534 39.7969L12.5604 39.8904L12.6534 39.9718C13.2142 40.4812 14.084 40.5234 15.0588 39.9597L32.631 29.9279L32.5111 29.8193Z" fill="black"/>
<path opacity="0.12" fill-rule="evenodd" clip-rule="evenodd" d="M38.4974 26.395L32.4961 29.8193L32.6041 29.9278L38.4824 26.5698C39.3252 26.0875 39.7391 25.4545 39.7391 24.8245C39.6881 25.4032 39.2592 25.9518 38.4974 26.395Z" fill="black"/>
<path opacity="0.25" fill-rule="evenodd" clip-rule="evenodd" d="M15.0469 9.86391L38.4975 23.2539C39.2593 23.6849 39.6882 24.2486 39.7541 24.8244C39.7541 24.1943 39.3403 23.5613 38.4975 23.079L15.0469 9.68908C13.3644 8.72146 11.9998 9.52932 11.9998 11.4615V11.6364C11.9998 9.70114 13.3644 8.90835 15.0469 9.86391Z" fill="white"/>
</g>
<defs>
<linearGradient id="paint0_linear_27_466" x1="26.217" y1="11.1732" x2="2.33396" y2="17.5048" gradientUnits="userSpaceOnUse">
<stop stop-color="#00A0FF"/>
<stop offset="0.00657" stop-color="#00A1FF"/>
<stop offset="0.2601" stop-color="#00BEFF"/>
<stop offset="0.5122" stop-color="#00D2FF"/>
<stop offset="0.7604" stop-color="#00DFFF"/>
<stop offset="1" stop-color="#00E3FF"/>
</linearGradient>
<linearGradient id="paint1_linear_27_466" x1="40.6915" y1="24.8245" x2="11.5905" y2="24.8245" gradientUnits="userSpaceOnUse">
<stop stop-color="#FFE000"/>
<stop offset="0.4087" stop-color="#FFBD00"/>
<stop offset="0.7754" stop-color="#FFA500"/>
<stop offset="1" stop-color="#FF9C00"/>
</linearGradient>
<linearGradient id="paint2_linear_27_466" x1="29.858" y1="27.6014" x2="10.5539" y2="59.9278" gradientUnits="userSpaceOnUse">
<stop stop-color="#FF3A44"/>
<stop offset="1" stop-color="#C31162"/>
</linearGradient>
<linearGradient id="paint3_linear_27_466" x1="8.77309" y1="0.865136" x2="17.3854" y2="15.3026" gradientUnits="userSpaceOnUse">
<stop stop-color="#32A071"/>
<stop offset="0.0685" stop-color="#2DA771"/>
<stop offset="0.4762" stop-color="#15CF74"/>
<stop offset="0.8009" stop-color="#06E775"/>
<stop offset="1" stop-color="#00F076"/>
</linearGradient>
<clipPath id="clip0_27_466">
<rect width="163.029" height="48.3509" fill="white" transform="translate(0 0.648926)"/>
</clipPath>
</defs>
</svg>
