<svg width="160" height="54" viewBox="0 0 160 54" fill="none" xmlns="http://www.w3.org/2000/svg">
<g clip-path="url(#clip0_27_467)">
<path d="M146.624 -0.000315024H12.6936C12.2054 -0.000315024 11.7231 -0.000315024 11.2362 0.00235047C10.8286 0.00501597 10.4243 0.0127592 10.0128 0.0192764C9.11882 0.0298075 8.22697 0.108539 7.34497 0.254786C6.46421 0.404218 5.61103 0.685938 4.81431 1.09042C4.01856 1.49832 3.29146 2.02835 2.65938 2.66128C2.02399 3.29242 1.49435 4.02194 1.09081 4.82178C0.686157 5.62003 0.405571 6.47543 0.25874 7.35843C0.110513 8.24032 0.0307511 9.13237 0.0201693 10.0266C0.00781479 10.4352 0.0065101 10.8452 0 11.2539V42.0594C0.0065101 42.4732 0.00781479 42.8741 0.0201693 43.288C0.0307543 44.1822 0.110517 45.0742 0.25874 45.9561C0.405165 46.8396 0.685769 47.6955 1.09081 48.494C1.49416 49.2913 2.02389 50.0178 2.65938 50.6455C3.28906 51.2812 4.01663 51.8116 4.81431 52.2164C5.61103 52.6219 6.46411 52.9053 7.34497 53.0571C8.22712 53.2022 9.11888 53.2809 10.0128 53.2927C10.4243 53.3018 10.8286 53.307 11.2362 53.307C11.7231 53.3096 12.2054 53.3096 12.6936 53.3096H146.624C147.102 53.3096 147.588 53.3096 148.067 53.307C148.472 53.307 148.888 53.3018 149.294 53.2927C150.186 53.2815 151.076 53.2028 151.957 53.0571C152.84 52.9043 153.696 52.6209 154.497 52.2164C155.294 51.8114 156.021 51.281 156.65 50.6455C157.284 50.0154 157.815 49.2893 158.223 48.494C158.625 47.6949 158.903 46.8391 159.047 45.9561C159.196 45.0741 159.278 44.1823 159.294 43.288C159.3 42.8741 159.3 42.4732 159.3 42.0594C159.31 41.5752 159.31 41.0937 159.31 40.6016V12.7089C159.31 12.2209 159.31 11.7367 159.3 11.2539C159.3 10.8452 159.3 10.4352 159.294 10.0265C159.278 9.13224 159.196 8.24038 159.047 7.35838C158.903 6.47589 158.625 5.62056 158.223 4.82173C157.401 3.21853 156.098 1.91355 154.497 1.0903C153.696 0.686807 152.84 0.405161 151.957 0.254666C151.076 0.107775 150.186 0.0290158 149.294 0.0190898C148.888 0.012586 148.472 0.00477608 148.067 0.00217722C147.588 -0.000488281 147.102 -0.000488281 146.624 -0.000488281V-0.000315024Z" fill="#A6A6A6"/>
<path d="M11.2427 52.1434C10.837 52.1434 10.4412 52.1382 10.0388 52.1291C9.20509 52.1183 8.37335 52.0456 7.55037 51.9118C6.783 51.7795 6.03961 51.5334 5.34474 51.1816C4.65624 50.8327 4.02828 50.3752 3.4849 49.8267C2.93366 49.2846 2.47473 48.6559 2.12629 47.9655C1.77401 47.2706 1.53021 46.5257 1.40338 45.7569C1.26643 44.9307 1.19232 44.0954 1.18172 43.258C1.17328 42.9769 1.16223 42.041 1.16223 42.041V11.2538C1.16223 11.2538 1.174 10.3323 1.18179 10.0616C1.19194 9.22554 1.26561 8.39147 1.40216 7.5666C1.52922 6.79564 1.77321 6.04863 2.12567 5.35144C2.47283 4.6615 2.92922 4.03233 3.47714 3.48833C4.02444 2.93916 4.65442 2.47933 5.34409 2.12563C6.03736 1.77496 6.77934 1.53059 7.54517 1.4007C8.37084 1.26551 9.20547 1.19242 10.0421 1.18204L11.2433 1.16577H148.06L149.276 1.1827C150.105 1.19256 150.932 1.26499 151.75 1.39939C152.523 1.53091 153.273 1.77699 153.974 2.12954C155.356 2.84235 156.48 3.97009 157.189 5.35469C157.536 6.04707 157.776 6.78798 157.902 7.55229C158.04 8.38393 158.117 9.22455 158.133 10.0675C158.137 10.4449 158.137 10.8503 158.137 11.2538C158.148 11.7536 158.148 12.2293 158.148 12.7089V40.6015C158.148 41.0857 158.148 41.5582 158.137 42.0345C158.137 42.4679 158.137 42.8649 158.132 43.2736C158.116 44.1014 158.04 44.9271 157.904 45.7438C157.78 46.5182 157.538 47.2689 157.186 47.9695C156.835 48.6524 156.378 49.2757 155.833 49.8163C155.29 50.3678 154.661 50.8279 153.97 51.179C153.271 51.5335 152.523 51.7806 151.75 51.9118C150.927 52.0463 150.095 52.119 149.261 52.1291C148.871 52.1382 148.463 52.1434 148.067 52.1434L146.623 52.1461L11.2427 52.1434Z" fill="black"/>
<path d="M32.9751 27.0553C32.9894 25.9429 33.2845 24.8522 33.8331 23.8847C34.3816 22.9172 35.1657 22.1043 36.1124 21.5216C35.511 20.6618 34.7176 19.9542 33.7952 19.455C32.8729 18.9558 31.8469 18.6788 30.7989 18.646C28.5633 18.4111 26.396 19.9852 25.2568 19.9852C24.0955 19.9852 22.3415 18.6693 20.4528 18.7082C19.2311 18.7477 18.0404 19.1034 16.9968 19.7405C15.9532 20.3776 15.0923 21.2745 14.4979 22.3438C11.9232 26.8064 13.8437 33.3649 16.3101 36.9721C17.5441 38.7385 18.9863 40.7115 20.8733 40.6416C22.72 40.5649 23.4096 39.4628 25.6386 39.4628C27.847 39.4628 28.494 40.6416 30.4194 40.5971C32.4009 40.5649 33.6493 38.8229 34.84 37.0398C35.7266 35.7812 36.4089 34.3902 36.8615 32.9183C35.7103 32.4308 34.7279 31.615 34.0368 30.5723C33.3457 29.5297 32.9764 28.3065 32.9751 27.0553Z" fill="white"/>
<path d="M29.3384 16.2737C30.4188 14.9753 30.9511 13.3065 30.8222 11.6216C29.1716 11.7951 27.6469 12.5849 26.5519 13.8334C26.0165 14.4434 25.6065 15.153 25.3452 15.9217C25.084 16.6904 24.9766 17.5031 25.0293 18.3133C25.8549 18.3218 26.6716 18.1427 27.418 17.7894C28.1645 17.4361 28.8211 16.9179 29.3384 16.2737Z" fill="white"/>
<path d="M56.3174 36.1698H50.0158L48.5025 40.6431H45.8334L51.8022 24.093H54.5753L60.5441 40.6431H57.8294L56.3174 36.1698ZM50.6685 34.1056H55.6635L53.2011 26.8457H53.1322L50.6685 34.1056Z" fill="white"/>
<path d="M73.4347 34.6105C73.4347 38.3602 71.4299 40.7693 68.4046 40.7693C67.6382 40.8094 66.876 40.6327 66.2053 40.2593C65.5346 39.886 64.9825 39.3311 64.6122 38.6582H64.5549V44.6348H62.0808V28.5767H64.4756V30.5837H64.5212C64.9085 29.914 65.47 29.362 66.1458 28.9863C66.8216 28.6107 67.5865 28.4255 68.3591 28.4505C71.4182 28.4505 73.4347 30.8713 73.4347 34.6105ZM70.8917 34.6105C70.8917 32.1676 69.6306 30.5615 67.7064 30.5615C65.8161 30.5615 64.5445 32.2014 64.5445 34.6105C64.5445 37.0418 65.8161 38.67 67.7064 38.67C69.6306 38.67 70.8917 37.0756 70.8917 34.6105Z" fill="white"/>
<path d="M86.7009 34.6108C86.7009 38.3604 84.6962 40.7695 81.6708 40.7695C80.9044 40.8097 80.1423 40.6329 79.4716 40.2596C78.8008 39.8862 78.2487 39.3313 77.8784 38.6584H77.8211V44.635H75.347V28.577H77.7418V30.5839H77.7873C78.1747 29.9142 78.7361 29.3622 79.412 28.9866C80.0878 28.611 80.8527 28.4258 81.6253 28.4507C84.6844 28.4507 86.7009 30.8715 86.7009 34.6108ZM84.1579 34.6108C84.1579 32.1678 82.8968 30.5618 80.9726 30.5618C79.0823 30.5618 77.8108 32.2017 77.8108 34.6108C77.8108 37.042 79.0823 38.6702 80.9726 38.6702C82.8968 38.6702 84.1579 37.0758 84.1579 34.6108H84.1579Z" fill="white"/>
<path d="M95.4688 36.0319C95.6521 37.6731 97.2448 38.7507 99.4211 38.7507C101.507 38.7507 103.007 37.6731 103.007 36.1932C103.007 34.9086 102.102 34.1395 99.9594 33.6123L97.8168 33.0956C94.7811 32.3616 93.3717 30.9403 93.3717 28.634C93.3717 25.7785 95.8575 23.8171 99.3873 23.8171C102.881 23.8171 105.276 25.7785 105.356 28.634H102.859C102.709 26.9824 101.345 25.9855 99.3522 25.9855C97.3591 25.9855 95.9953 26.9941 95.9953 28.4622C95.9953 29.6323 96.8664 30.3208 98.9973 30.8479L100.819 31.2956C104.211 32.0986 105.62 33.4626 105.62 35.8834C105.62 38.9797 103.156 40.919 99.2378 40.919C95.5715 40.919 93.0961 39.0253 92.9362 36.0318L95.4688 36.0319Z" fill="white"/>
<path d="M110.96 25.7214V28.577H113.252V30.5383H110.96V37.1904C110.96 38.2238 111.419 38.7053 112.426 38.7053C112.698 38.7006 112.97 38.6814 113.24 38.648V40.5977C112.787 40.6824 112.327 40.7208 111.866 40.7122C109.426 40.7122 108.474 39.7946 108.474 37.4545V30.5383H106.721V28.577H108.474V25.7214H110.96Z" fill="white"/>
<path d="M114.579 34.6106C114.579 30.8141 116.813 28.4285 120.296 28.4285C123.79 28.4285 126.014 30.8141 126.014 34.6106C126.014 38.4176 123.802 40.7928 120.296 40.7928C116.791 40.7928 114.579 38.4176 114.579 34.6106ZM123.493 34.6106C123.493 32.0063 122.301 30.4692 120.296 30.4692C118.291 30.4692 117.1 32.018 117.1 34.6106C117.1 37.2254 118.291 38.7508 120.296 38.7508C122.301 38.7508 123.493 37.2254 123.493 34.6106H123.493Z" fill="white"/>
<path d="M128.053 28.5769H130.413V30.6306H130.47C130.63 29.9892 131.005 29.4223 131.533 29.0253C132.061 28.6283 132.71 28.4254 133.37 28.4506C133.655 28.4496 133.939 28.4806 134.217 28.543V30.8597C133.857 30.7496 133.482 30.699 133.106 30.71C132.746 30.6954 132.388 30.7589 132.055 30.896C131.723 31.0331 131.424 31.2407 131.179 31.5044C130.934 31.7681 130.749 32.0818 130.636 32.4239C130.524 32.766 130.487 33.1283 130.528 33.4861V40.6432H128.053L128.053 28.5769Z" fill="white"/>
<path d="M145.624 37.0991C145.292 39.2896 143.161 40.7928 140.434 40.7928C136.928 40.7928 134.752 38.441 134.752 34.6679C134.752 30.8831 136.94 28.4285 140.33 28.4285C143.665 28.4285 145.762 30.7217 145.762 34.3803V35.2289H137.249V35.3785C137.21 35.8226 137.265 36.27 137.412 36.6909C137.559 37.1118 137.793 37.4967 138.1 37.82C138.407 38.1432 138.778 38.3975 139.191 38.5658C139.603 38.7341 140.047 38.8127 140.492 38.7963C141.076 38.8511 141.663 38.7156 142.164 38.4098C142.666 38.104 143.056 37.6443 143.275 37.0991L145.624 37.0991ZM137.261 33.4979H143.287C143.309 33.0986 143.249 32.699 143.109 32.3242C142.97 31.9494 142.755 31.6075 142.477 31.32C142.199 31.0324 141.865 30.8054 141.496 30.6532C141.127 30.501 140.73 30.4268 140.33 30.4354C139.927 30.433 139.528 30.5105 139.155 30.6634C138.782 30.8163 138.444 31.0417 138.158 31.3264C137.873 31.6111 137.647 31.9496 137.493 32.3223C137.339 32.695 137.26 33.0945 137.261 33.4979V33.4979Z" fill="white"/>
<path d="M50.3583 11.636C50.877 11.5987 51.3975 11.6772 51.8823 11.8657C52.367 12.0541 52.8039 12.348 53.1615 12.726C53.5191 13.104 53.7884 13.5567 53.95 14.0515C54.1116 14.5464 54.1616 15.0709 54.0962 15.5874C54.0962 18.1279 52.7245 19.5883 50.3583 19.5883H47.489V11.636H50.3583ZM48.7228 18.4636H50.2205C50.5912 18.4858 50.9621 18.425 51.3063 18.2856C51.6505 18.1461 51.9593 17.9316 52.2102 17.6577C52.4612 17.3837 52.6479 17.0572 52.7569 16.7018C52.8659 16.3465 52.8944 15.9713 52.8402 15.6036C52.8904 15.2373 52.8591 14.8644 52.7484 14.5117C52.6378 14.159 52.4506 13.8351 52.2002 13.5633C51.9498 13.2915 51.6425 13.0785 51.3002 12.9396C50.958 12.8007 50.5893 12.7393 50.2205 12.7598H48.7228V18.4636Z" fill="white"/>
<path d="M55.4898 16.585C55.4521 16.1906 55.4972 15.7927 55.6221 15.4168C55.7471 15.0408 55.9491 14.6952 56.2153 14.402C56.4815 14.1088 56.8059 13.8746 57.1678 13.7143C57.5298 13.554 57.9211 13.4712 58.3169 13.4712C58.7127 13.4712 59.104 13.554 59.466 13.7143C59.8279 13.8746 60.1523 14.1088 60.4185 14.402C60.6847 14.6952 60.8867 15.0408 61.0117 15.4168C61.1366 15.7927 61.1817 16.1906 61.144 16.585C61.1824 16.9798 61.1379 17.3783 61.0133 17.7548C60.8887 18.1313 60.6867 18.4776 60.4205 18.7714C60.1542 19.0651 59.8295 19.2999 59.4673 19.4605C59.105 19.6211 58.7131 19.7041 58.3169 19.7041C57.9207 19.7041 57.5288 19.6211 57.1665 19.4605C56.8043 19.2999 56.4796 19.0651 56.2133 18.7714C55.9471 18.4776 55.7451 18.1313 55.6205 17.7548C55.4959 17.3783 55.4514 16.9798 55.4898 16.585ZM59.9271 16.585C59.9271 15.2841 59.3433 14.5234 58.3188 14.5234C57.2905 14.5234 56.712 15.2841 56.712 16.585C56.712 17.8963 57.2905 18.6512 58.3188 18.6512C59.3433 18.6511 59.9271 17.8911 59.9271 16.585H59.9271Z" fill="white"/>
<path d="M68.6599 19.5882H67.4326L66.1936 15.1682H66.1L64.8662 19.5882H63.6506L61.9982 13.5869H63.1982L64.2721 18.1662H64.3605L65.593 13.5869H66.728L67.9605 18.1662H68.0541L69.1228 13.5869H70.3058L68.6599 19.5882Z" fill="white"/>
<path d="M71.6957 13.5868H72.8346V14.5402H72.923C73.073 14.1978 73.3259 13.9107 73.6466 13.7191C73.9673 13.5274 74.3397 13.4407 74.7119 13.471C75.0036 13.449 75.2965 13.4931 75.5689 13.5998C75.8413 13.7066 76.0862 13.8733 76.2854 14.0877C76.4847 14.302 76.6333 14.5585 76.7201 14.8382C76.8069 15.1178 76.8297 15.4134 76.7869 15.7031V19.588H75.6038V16.0005C75.6038 15.0361 75.1852 14.5565 74.3102 14.5565C74.1122 14.5472 73.9145 14.581 73.7307 14.6554C73.5469 14.7298 73.3813 14.8431 73.2454 14.9876C73.1094 15.132 73.0062 15.3042 72.943 15.4923C72.8797 15.6804 72.8578 15.8799 72.8788 16.0773V19.5881H71.6957L71.6957 13.5868Z" fill="white"/>
<path d="M78.6721 11.2441H79.8552V19.5881H78.6721V11.2441Z" fill="white"/>
<path d="M81.4998 16.5849C81.4621 16.1905 81.5072 15.7925 81.6322 15.4166C81.7571 15.0406 81.9592 14.695 82.2254 14.4018C82.4916 14.1086 82.8161 13.8744 83.1781 13.7141C83.54 13.5538 83.9314 13.4709 84.3272 13.4709C84.723 13.4709 85.1144 13.5538 85.4763 13.7141C85.8383 13.8744 86.1628 14.1086 86.429 14.4018C86.6952 14.695 86.8972 15.0406 87.0222 15.4166C87.1472 15.7925 87.1923 16.1905 87.1546 16.5849C87.193 16.9797 87.1484 17.3781 87.0238 17.7547C86.8991 18.1312 86.6972 18.4775 86.4309 18.7712C86.1646 19.065 85.8399 19.2997 85.4776 19.4603C85.1153 19.621 84.7234 19.704 84.3272 19.704C83.931 19.704 83.5391 19.621 83.1768 19.4603C82.8145 19.2997 82.4898 19.065 82.2235 18.7712C81.9572 18.4775 81.7553 18.1312 81.6306 17.7547C81.506 17.3781 81.4614 16.9797 81.4998 16.5849ZM85.937 16.5849C85.937 15.284 85.3533 14.5233 84.3288 14.5233C83.3004 14.5233 82.7219 15.284 82.7219 16.5849C82.7219 17.8962 83.3005 18.651 84.3288 18.651C85.3533 18.651 85.9371 17.8909 85.9371 16.5849H85.937Z" fill="white"/>
<path d="M88.4001 17.8909C88.4001 16.8106 89.2036 16.1878 90.6298 16.0993L92.2537 16.0056V15.4876C92.2537 14.8538 91.835 14.4959 91.0264 14.4959C90.3659 14.4959 89.9083 14.7386 89.777 15.1629H88.6316C88.7525 14.1321 89.7211 13.4709 91.081 13.4709C92.5839 13.4709 93.4316 14.22 93.4316 15.4876V19.5881H92.2927V18.7447H92.1991C92.0091 19.0472 91.7423 19.2938 91.4259 19.4594C91.1096 19.6249 90.755 19.7034 90.3984 19.6869C90.1468 19.7131 89.8924 19.6863 89.6517 19.608C89.4111 19.5298 89.1895 19.4019 89.0012 19.2327C88.813 19.0635 88.6622 18.8567 88.5587 18.6256C88.4551 18.3944 88.4011 18.1442 88.4001 17.8909ZM92.2537 17.3781V16.8763L90.7897 16.9701C89.9642 17.0254 89.5897 17.3065 89.5897 17.8356C89.5897 18.3757 90.0578 18.69 90.7014 18.69C90.89 18.7091 91.0804 18.69 91.2615 18.6339C91.4426 18.5778 91.6105 18.4859 91.7553 18.3635C91.9002 18.2411 92.0189 18.0907 92.1045 17.9215C92.1901 17.7522 92.2409 17.5674 92.2537 17.3781Z" fill="white"/>
<path d="M94.9865 16.5849C94.9865 14.6886 95.9602 13.4873 97.4749 13.4873C97.8495 13.47 98.2213 13.5599 98.5469 13.7463C98.8724 13.9328 99.1382 14.2081 99.3132 14.5402H99.4016V11.2441H100.585V19.5881H99.451V18.64H99.3574C99.1689 18.9698 98.8938 19.2417 98.562 19.4263C98.2302 19.6109 97.8542 19.701 97.4749 19.687C95.9498 19.6871 94.9865 18.4858 94.9865 16.5849ZM96.2086 16.5849C96.2086 17.8578 96.808 18.6237 97.8103 18.6237C98.8075 18.6237 99.4238 17.8468 99.4238 16.5901C99.4238 15.3394 98.801 14.5513 97.8103 14.5513C96.8144 14.5513 96.2086 15.3224 96.2086 16.5849H96.2086Z" fill="white"/>
<path d="M105.48 16.585C105.442 16.1906 105.487 15.7927 105.612 15.4168C105.737 15.0408 105.939 14.6952 106.205 14.402C106.471 14.1088 106.796 13.8746 107.158 13.7143C107.52 13.554 107.911 13.4712 108.307 13.4712C108.703 13.4712 109.094 13.554 109.456 13.7143C109.818 13.8746 110.142 14.1088 110.408 14.402C110.675 14.6952 110.877 15.0408 111.002 15.4168C111.126 15.7927 111.172 16.1906 111.134 16.585C111.172 16.9798 111.128 17.3783 111.003 17.7548C110.879 18.1313 110.677 18.4776 110.41 18.7714C110.144 19.0651 109.819 19.2999 109.457 19.4605C109.095 19.6211 108.703 19.7041 108.307 19.7041C107.911 19.7041 107.519 19.6211 107.156 19.4605C106.794 19.2999 106.469 19.0651 106.203 18.7714C105.937 18.4776 105.735 18.1313 105.61 17.7548C105.486 17.3783 105.441 16.9798 105.48 16.585ZM109.917 16.585C109.917 15.2841 109.333 14.5234 108.309 14.5234C107.28 14.5234 106.702 15.2841 106.702 16.585C106.702 17.8963 107.28 18.6512 108.309 18.6512C109.333 18.6511 109.917 17.8911 109.917 16.585Z" fill="white"/>
<path d="M112.721 13.5868H113.86V14.5402H113.949C114.098 14.1978 114.351 13.9107 114.672 13.7191C114.993 13.5274 115.365 13.4407 115.737 13.471C116.029 13.449 116.322 13.4931 116.594 13.5998C116.867 13.7066 117.112 13.8733 117.311 14.0877C117.51 14.302 117.659 14.5585 117.746 14.8382C117.832 15.1178 117.855 15.4134 117.812 15.7031V19.588H116.629V16.0005C116.629 15.0361 116.211 14.5565 115.336 14.5565C115.138 14.5472 114.94 14.581 114.756 14.6554C114.572 14.7298 114.407 14.8431 114.271 14.9876C114.135 15.132 114.032 15.3042 113.968 15.4923C113.905 15.6804 113.883 15.8799 113.904 16.0773V19.5881H112.721V13.5868Z" fill="white"/>
<path d="M124.498 12.0928V13.6142H125.796V14.6119H124.498V17.6977C124.498 18.3264 124.756 18.6016 125.345 18.6016C125.496 18.6012 125.647 18.592 125.796 18.5743V19.5608C125.584 19.5989 125.369 19.6191 125.153 19.6214C123.837 19.6214 123.313 19.158 123.313 18.001V14.6118H122.362V13.6142H123.313V12.0928H124.498Z" fill="white"/>
<path d="M127.412 11.2441H128.585V14.5513H128.679C128.836 14.2057 129.096 13.917 129.423 13.7246C129.75 13.5323 130.129 13.4455 130.507 13.4762C130.797 13.4604 131.087 13.5089 131.356 13.6183C131.626 13.7276 131.867 13.8951 132.065 14.1088C132.262 14.3225 132.409 14.5771 132.497 14.8545C132.585 15.1319 132.61 15.4252 132.571 15.7135V19.5881H131.387V16.0057C131.387 15.0472 130.941 14.5617 130.105 14.5617C129.902 14.545 129.697 14.573 129.506 14.6437C129.314 14.7144 129.141 14.8261 128.997 14.971C128.853 15.116 128.743 15.2906 128.673 15.4827C128.604 15.6748 128.578 15.8797 128.596 16.0832V19.5881H127.413L127.412 11.2441Z" fill="white"/>
<path d="M139.47 17.9678C139.309 18.5162 138.961 18.9907 138.486 19.3081C138.011 19.6255 137.44 19.7656 136.872 19.704C136.477 19.7144 136.085 19.6387 135.722 19.4821C135.359 19.3254 135.035 19.0916 134.771 18.7969C134.508 18.5022 134.311 18.1536 134.196 17.7753C134.081 17.3971 134.049 16.9982 134.103 16.6064C134.05 16.2134 134.083 15.8137 134.198 15.4343C134.313 15.0549 134.508 14.7047 134.77 14.4074C135.032 14.1101 135.355 13.8726 135.717 13.7111C136.079 13.5495 136.471 13.4677 136.867 13.471C138.535 13.471 139.541 14.6119 139.541 16.4964V16.9097H135.308V16.976C135.29 17.1963 135.317 17.4179 135.389 17.6268C135.461 17.8358 135.576 18.0273 135.726 18.1892C135.877 18.351 136.059 18.4797 136.262 18.5668C136.465 18.654 136.684 18.6977 136.905 18.6953C137.188 18.7293 137.474 18.6783 137.728 18.5487C137.982 18.4192 138.192 18.2169 138.331 17.9677L139.47 17.9678ZM135.308 16.0337H138.336C138.351 15.8323 138.324 15.63 138.256 15.4398C138.188 15.2496 138.081 15.0757 137.942 14.9293C137.803 14.7829 137.635 14.6672 137.449 14.5896C137.262 14.5121 137.062 14.4744 136.86 14.4791C136.656 14.4765 136.453 14.515 136.263 14.5922C136.074 14.6694 135.901 14.7838 135.757 14.9287C135.612 15.0736 135.498 15.246 135.421 15.4358C135.344 15.6256 135.305 15.8289 135.308 16.0337H135.308Z" fill="white"/>
</g>
<defs>
<clipPath id="clip0_27_467">
<rect width="159.31" height="53.3099" fill="white" transform="translate(0 -0.000244141)"/>
</clipPath>
</defs>
</svg>
