<svg width="44" height="44" viewBox="0 0 44 44" fill="none" xmlns="http://www.w3.org/2000/svg">
<g clip-path="url(#clip0_16_231)">
<path d="M22 25.6667C25.0376 25.6667 27.5 23.2042 27.5 20.1667C27.5 17.1291 25.0376 14.6667 22 14.6667C18.9624 14.6667 16.5 17.1291 16.5 20.1667C16.5 23.2042 18.9624 25.6667 22 25.6667Z" stroke="#2C3E50" stroke-width="2.75" stroke-linecap="round" stroke-linejoin="round"/>
<path d="M32.3711 30.5378L24.5923 38.3167C23.9047 39.0035 22.9727 39.3893 22.0008 39.3893C21.029 39.3893 20.097 39.0035 19.4094 38.3167L11.6288 30.5378C9.57766 28.4866 8.18087 25.8733 7.61502 23.0283C7.04916 20.1832 7.33966 17.2343 8.44976 14.5544C9.55987 11.8744 11.4397 9.58384 13.8516 7.97228C16.2635 6.36072 19.0992 5.50055 21.9999 5.50055C24.9007 5.50055 27.7363 6.36072 30.1482 7.97228C32.5601 9.58384 34.44 11.8744 35.5501 14.5544C36.6602 17.2343 36.9507 20.1832 36.3848 23.0283C35.819 25.8733 34.4222 28.4866 32.3711 30.5378V30.5378Z" stroke="#2C3E50" stroke-width="2.75" stroke-linecap="round" stroke-linejoin="round"/>
</g>
<defs>
<clipPath id="clip0_16_231">
<rect width="44" height="44" fill="white"/>
</clipPath>
</defs>
</svg>
