<svg width="159" height="111" viewBox="0 0 159 111" fill="none" xmlns="http://www.w3.org/2000/svg">
<circle cx="81.6455" cy="4.08203" r="4.08227" fill="#767676"/>
<path d="M54.6196 38.4706C54.6196 53.3125 66.6126 65.3442 81.4068 65.3442C96.201 65.3442 108.194 53.3125 108.194 38.4706C108.194 23.6284 96.201 11.5969 81.4068 11.5969C66.6126 11.5969 54.6196 23.6284 54.6196 38.4706ZM58.6069 38.4706C58.6069 25.8379 68.8148 15.5972 81.4068 15.5972C93.9988 15.5972 104.207 25.8379 104.207 38.4706C104.207 51.1032 93.9988 61.344 81.4068 61.344C68.8148 61.344 58.6069 51.1032 58.6069 38.4706Z" fill="#767676"/>
<path d="M71.6262 39.0952L67.1041 44.6492L62.4983 40.9528L67.4647 47.6786L73.1137 40.9357L78.2233 47.2581L76.5267 58.5097L76.8171 58.5844C78.2996 58.8882 79.8346 59.0479 81.4069 59.0479C82.9792 59.0479 84.5142 58.8882 85.9967 58.5844L86.8343 58.3687L85.2773 46.5112L85.2388 46.4597L90.0405 40.805L95.5433 47.5117L100.315 40.8972L95.7376 44.7603L91.3447 39.2691L85.4439 31.8924L77.5365 31.8369L71.6262 39.0952Z" fill="#767676"/>
<path d="M86.0562 67.1914C84.5768 67.4947 83.045 67.6542 81.4761 67.6542C79.9073 67.6542 78.3755 67.4947 76.8961 67.1914L75.3544 66.794L71.0522 95.343L81.6838 110.771L91.7617 95.4541L87.9876 66.6937L86.0562 67.1914Z" fill="#767676"/>
<path d="M62.2729 35.4348C63.5074 29.8078 65.1079 26.2134 71.0519 21.9418" stroke="#A5A5A5" stroke-width="4.67" stroke-miterlimit="8" stroke-linecap="round"/>
<path d="M132.889 25.4662C132.574 25.6054 132.3 25.7911 132.066 26.023C131.832 26.2553 131.645 26.527 131.504 26.8389C131.364 27.1501 131.294 27.4852 131.294 27.8434C131.294 28.2015 131.364 28.5363 131.504 28.848C131.645 29.1595 131.832 29.4311 132.066 29.6634C132.3 29.8957 132.574 30.0781 132.889 30.2104C133.203 30.3433 133.546 30.4096 133.916 30.4096C134.287 30.4096 134.627 30.3433 134.937 30.2104C135.247 30.0781 135.52 29.8957 135.756 29.6634C135.992 29.4311 136.178 29.1595 136.313 28.848C136.448 28.5363 136.515 28.2015 136.515 27.8434C136.515 27.4852 136.448 27.1501 136.313 26.8389C136.178 26.527 135.992 26.2553 135.756 26.023C135.52 25.7911 135.247 25.6054 134.937 25.4662C134.627 25.3268 134.287 25.2573 133.916 25.2573C133.546 25.2573 133.203 25.3268 132.889 25.4662ZM154.748 30.4397C154.43 30.581 154.152 30.7699 153.916 31.0055C153.679 31.2412 153.489 31.5174 153.347 31.8338C153.205 32.1504 153.134 32.4904 153.134 32.8543C153.134 33.2179 153.205 33.558 153.347 33.8746C153.489 34.191 153.679 34.467 153.916 34.7029C154.152 34.9385 154.43 35.1238 154.748 35.2585C155.066 35.3933 155.408 35.4605 155.773 35.4605C156.139 35.4605 156.48 35.3933 156.798 35.2585C157.116 35.1238 157.394 34.9385 157.631 34.7029C157.868 34.467 158.054 34.191 158.189 33.8746C158.324 33.558 158.392 33.2179 158.392 32.8543C158.392 32.4904 158.324 32.1504 158.189 31.8338C158.054 31.5174 157.868 31.2412 157.631 31.0055C157.394 30.7699 157.116 30.581 156.798 30.4397C156.48 30.2983 156.139 30.2277 155.773 30.2277C155.408 30.2277 155.066 30.2983 154.748 30.4397ZM148.534 30.4397C148.221 30.581 147.948 30.7699 147.715 31.0055C147.482 31.2412 147.299 31.5174 147.165 31.8338C147.032 32.1504 146.966 32.4904 146.966 32.8543C146.966 33.2179 147.032 33.558 147.165 33.8746C147.299 34.191 147.482 34.467 147.715 34.7029C147.948 34.9385 148.221 35.1238 148.534 35.2585C148.848 35.3933 149.184 35.4605 149.544 35.4605C149.904 35.4605 150.24 35.3933 150.554 35.2585C150.867 35.1238 151.14 34.9385 151.373 34.7029C151.607 34.467 151.793 34.191 151.933 33.8746C152.073 33.558 152.143 33.2179 152.143 32.8543C152.143 32.4904 152.073 32.1504 151.933 31.8338C151.793 31.5174 151.607 31.2412 151.373 31.0055C151.14 30.7699 150.867 30.581 150.554 30.4397C150.24 30.2983 149.904 30.2277 149.544 30.2277C149.184 30.2277 148.848 30.2983 148.534 30.4397ZM15.3905 30.2277V55.5208C15.3905 56.8146 14.8883 57.8156 13.8839 58.5233C12.8795 59.2308 11.6828 59.5847 10.2942 59.5847C8.89177 59.5847 7.68859 59.2307 6.68396 58.5228C5.67956 57.8149 5.17735 56.8137 5.17735 55.5193V40.8148H0V55.5033C0 58.4263 1.01454 60.6959 3.04383 62.3123C5.07291 63.9286 7.39529 64.7368 10.011 64.7368C12.6267 64.7368 14.8916 64.097 16.8061 62.8174C18.7206 61.5378 19.9072 59.7662 20.3657 57.5036H22.6887H24.3093H30.8732H32.5176H44.2986H46.001H52.4023H54.1274H62.2311V52.3515H54.1274H52.4023H46.001H44.2986H42.2594V37.4204H37.082V52.3515H32.5176H30.8732H24.3093H22.6887H20.5678V30.2277H15.3905ZM136.039 30.4422C135.723 30.5834 135.446 30.7719 135.21 31.0073C134.975 31.2426 134.786 31.5185 134.644 31.8345C134.503 32.1506 134.432 32.4904 134.432 32.8543C134.432 33.2179 134.503 33.558 134.644 33.8746C134.786 34.191 134.975 34.467 135.21 34.7029C135.446 34.9385 135.723 35.1238 136.039 35.2585C136.356 35.3933 136.694 35.4605 137.054 35.4605C137.413 35.4605 137.746 35.3933 138.052 35.2585C138.358 35.1238 138.627 34.9385 138.86 34.7029C139.093 34.467 139.276 34.191 139.409 33.8746C139.543 33.558 139.609 33.2179 139.609 32.8543C139.609 32.4904 139.543 32.1506 139.409 31.8345C139.276 31.5185 139.093 31.2426 138.86 31.0073C138.627 30.7719 138.358 30.5834 138.052 30.4422C137.746 30.3012 137.413 30.2306 137.054 30.2306C136.694 30.2306 136.356 30.3012 136.039 30.4422ZM129.819 30.4422C129.504 30.5834 129.23 30.7719 128.996 31.0073C128.762 31.2426 128.578 31.5185 128.444 31.8345C128.31 32.1506 128.243 32.4904 128.243 32.8543C128.243 33.2179 128.31 33.558 128.444 33.8746C128.578 34.191 128.762 34.467 128.996 34.7029C129.23 34.9385 129.504 35.1238 129.819 35.2585C130.133 35.3933 130.471 35.4605 130.832 35.4605C131.193 35.4605 131.531 35.3933 131.845 35.2585C132.16 35.1238 132.434 34.9385 132.668 34.7029C132.902 34.467 133.086 34.191 133.22 33.8746C133.354 33.558 133.421 33.2179 133.421 32.8543C133.421 32.4904 133.354 32.1506 133.22 31.8345C133.086 31.5185 132.902 31.2426 132.668 31.0073C132.434 30.7719 132.16 30.5834 131.845 30.4422C131.531 30.3012 131.193 30.2306 130.832 30.2306C130.471 30.2306 130.133 30.3012 129.819 30.4422ZM153.154 37.4204V50.7958C153.154 51.2269 153.003 51.5939 152.702 51.8968C152.401 52.2 152.042 52.3515 151.627 52.3515H148.649H146.945H144.928V37.4204H139.751V52.3515H136.616V37.4204H131.439V52.3515H128.324V37.4204H123.147V52.3515H118.057H116.372H109.728H108.228H99.8988V57.5036H108.228H109.728H116.372H118.057H146.945H148.649H151.649C153.493 57.5036 155.068 56.8504 156.373 55.5438C157.679 54.2372 158.331 52.6545 158.331 50.7958V37.4204H153.154ZM38.5744 59.7642C38.2564 59.8973 37.979 60.0804 37.7422 60.3133C37.5054 60.5463 37.3193 60.8191 37.184 61.1321C37.0487 61.445 36.9809 61.7812 36.9809 62.1405C36.9809 62.5001 37.0487 62.8363 37.1838 63.1491C37.3193 63.4619 37.5054 63.7347 37.7422 63.9677C37.979 64.2007 38.2564 64.3837 38.5744 64.5169C38.8925 64.65 39.2342 64.7166 39.5998 64.7166C39.9651 64.7166 40.307 64.65 40.6251 64.5169C40.9432 64.3837 41.2207 64.2007 41.4576 63.9677C41.6946 63.7347 41.8807 63.4619 42.016 63.1491C42.1513 62.8361 42.2191 62.5001 42.2191 62.1405C42.2191 61.7812 42.1513 61.445 42.016 61.1321C41.8807 60.8191 41.6946 60.5463 41.4576 60.3133C41.2207 60.0804 40.9432 59.8973 40.6251 59.7642C40.307 59.6308 39.9651 59.5645 39.5998 59.5645C39.2342 59.5645 38.8925 59.6308 38.5744 59.7642ZM32.3616 59.7642C32.0483 59.8973 31.7752 60.0804 31.542 60.3133C31.3088 60.5463 31.1256 60.8191 30.9923 61.1321C30.8591 61.445 30.7924 61.7812 30.7924 62.1405C30.7924 62.5001 30.8591 62.8363 30.9921 63.1491C31.1256 63.4619 31.3088 63.7347 31.542 63.9677C31.7752 64.2007 32.0483 64.3837 32.3616 64.5169C32.6747 64.65 33.0113 64.7166 33.371 64.7166C33.7309 64.7166 34.0674 64.65 34.3806 64.5169C34.6939 64.3837 34.9672 64.2007 35.2004 63.9677C35.4336 63.7347 35.62 63.4619 35.76 63.1491C35.8998 62.8361 35.9698 62.5001 35.9698 62.1405C35.9698 61.7812 35.8998 61.445 35.76 61.1321C35.62 60.8191 35.4336 60.5463 35.2004 60.3133C34.9672 60.0804 34.6939 59.8973 34.3806 59.7642C34.0674 59.6308 33.7309 59.5645 33.371 59.5645C33.0113 59.5645 32.6747 59.6308 32.3616 59.7642Z" fill="#767676"/>
</svg>
